<mxfile host="app.diagrams.net" modified="2023-01-28T05:46:03.209Z" agent="5.0 (Windows NT 10.0; Win64; x64) AppleWebKit/537.36 (KHTML, like Gecko) Chrome/109.0.0.0 Safari/537.36" version="20.8.5" etag="F4oxOYFvgfhUVGPbnVlD" type="github">
  <diagram id="BV7KIVUrdbYHye9zr2AO" name="Page-1">
    <mxGraphModel dx="954" dy="594" grid="1" gridSize="10" guides="1" tooltips="1" connect="1" arrows="1" fold="1" page="1" pageScale="1" pageWidth="850" pageHeight="1100" math="0" shadow="0">
      <root>
        <mxCell id="0" />
        <mxCell id="1" parent="0" />
        <mxCell id="Am5vA1U0dw_JDVjkBqAS-2" value="tok2vec" style="shape=step;perimeter=stepPerimeter;whiteSpace=wrap;html=1;fixedSize=1;" vertex="1" parent="1">
          <mxGeometry x="40" y="269" width="130" height="80" as="geometry" />
        </mxCell>
        <mxCell id="Am5vA1U0dw_JDVjkBqAS-3" value="tagger" style="shape=step;perimeter=stepPerimeter;whiteSpace=wrap;html=1;fixedSize=1;" vertex="1" parent="1">
          <mxGeometry x="150" y="269" width="130" height="80" as="geometry" />
        </mxCell>
        <mxCell id="Am5vA1U0dw_JDVjkBqAS-4" value="" style="shape=step;perimeter=stepPerimeter;whiteSpace=wrap;html=1;fixedSize=1;" vertex="1" parent="1">
          <mxGeometry x="590" y="270" width="130" height="79" as="geometry" />
        </mxCell>
        <mxCell id="Am5vA1U0dw_JDVjkBqAS-5" value="parser&lt;span style=&quot;white-space: pre;&quot;&gt;	&lt;/span&gt;" style="shape=step;perimeter=stepPerimeter;whiteSpace=wrap;html=1;fixedSize=1;" vertex="1" parent="1">
          <mxGeometry x="260" y="269" width="130" height="80" as="geometry" />
        </mxCell>
        <mxCell id="Am5vA1U0dw_JDVjkBqAS-6" value="attribute_ruler" style="shape=step;perimeter=stepPerimeter;whiteSpace=wrap;html=1;fixedSize=1;" vertex="1" parent="1">
          <mxGeometry x="370" y="269" width="130" height="80" as="geometry" />
        </mxCell>
        <mxCell id="Am5vA1U0dw_JDVjkBqAS-7" value="lemmatizer" style="shape=step;perimeter=stepPerimeter;whiteSpace=wrap;html=1;fixedSize=1;" vertex="1" parent="1">
          <mxGeometry x="480" y="269" width="130" height="80" as="geometry" />
        </mxCell>
        <mxCell id="Am5vA1U0dw_JDVjkBqAS-8" value="" style="endArrow=none;html=1;rounded=0;exitX=0;exitY=0.5;exitDx=0;exitDy=0;entryX=1;entryY=0.5;entryDx=0;entryDy=0;" edge="1" parent="1" source="Am5vA1U0dw_JDVjkBqAS-4" target="Am5vA1U0dw_JDVjkBqAS-4">
          <mxGeometry width="50" height="50" relative="1" as="geometry">
            <mxPoint x="630" y="319" as="sourcePoint" />
            <mxPoint x="680" y="269" as="targetPoint" />
          </mxGeometry>
        </mxCell>
        <mxCell id="Am5vA1U0dw_JDVjkBqAS-11" value="NER" style="text;html=1;strokeColor=none;fillColor=none;align=center;verticalAlign=middle;whiteSpace=wrap;rounded=0;" vertex="1" parent="1">
          <mxGeometry x="625" y="280" width="60" height="30" as="geometry" />
        </mxCell>
        <mxCell id="Am5vA1U0dw_JDVjkBqAS-12" value="tok2vec" style="text;html=1;strokeColor=none;fillColor=none;align=center;verticalAlign=middle;whiteSpace=wrap;rounded=0;" vertex="1" parent="1">
          <mxGeometry x="625" y="310" width="60" height="30" as="geometry" />
        </mxCell>
        <mxCell id="Am5vA1U0dw_JDVjkBqAS-14" value="rules" style="rounded=1;whiteSpace=wrap;html=1;" vertex="1" parent="1">
          <mxGeometry x="410" y="260" width="50" height="20" as="geometry" />
        </mxCell>
        <mxCell id="Am5vA1U0dw_JDVjkBqAS-16" value="rules" style="rounded=1;whiteSpace=wrap;html=1;" vertex="1" parent="1">
          <mxGeometry x="510" y="260" width="50" height="20" as="geometry" />
        </mxCell>
        <mxCell id="Am5vA1U0dw_JDVjkBqAS-18" value="listener" style="rounded=1;whiteSpace=wrap;html=1;" vertex="1" parent="1">
          <mxGeometry x="490" y="340" width="90" height="20" as="geometry" />
        </mxCell>
        <mxCell id="Am5vA1U0dw_JDVjkBqAS-19" value="listener" style="rounded=1;whiteSpace=wrap;html=1;" vertex="1" parent="1">
          <mxGeometry x="270" y="340" width="90" height="20" as="geometry" />
        </mxCell>
        <mxCell id="Am5vA1U0dw_JDVjkBqAS-20" value="listener" style="rounded=1;whiteSpace=wrap;html=1;" vertex="1" parent="1">
          <mxGeometry x="160" y="340" width="90" height="20" as="geometry" />
        </mxCell>
        <mxCell id="Am5vA1U0dw_JDVjkBqAS-21" value="" style="endArrow=classic;html=1;rounded=0;exitX=0.5;exitY=1;exitDx=0;exitDy=0;" edge="1" parent="1" source="Am5vA1U0dw_JDVjkBqAS-19">
          <mxGeometry width="50" height="50" relative="1" as="geometry">
            <mxPoint x="400" y="330" as="sourcePoint" />
            <mxPoint x="90" y="350" as="targetPoint" />
            <Array as="points">
              <mxPoint x="315" y="420" />
              <mxPoint x="90" y="420" />
            </Array>
          </mxGeometry>
        </mxCell>
        <mxCell id="Am5vA1U0dw_JDVjkBqAS-22" value="" style="endArrow=classic;html=1;rounded=0;exitX=0.5;exitY=1;exitDx=0;exitDy=0;" edge="1" parent="1">
          <mxGeometry width="50" height="50" relative="1" as="geometry">
            <mxPoint x="217.5" y="360" as="sourcePoint" />
            <mxPoint x="90" y="360" as="targetPoint" />
            <Array as="points">
              <mxPoint x="218" y="400" />
              <mxPoint x="110" y="400" />
              <mxPoint x="90" y="400" />
            </Array>
          </mxGeometry>
        </mxCell>
        <mxCell id="Am5vA1U0dw_JDVjkBqAS-23" value="" style="endArrow=none;dashed=1;html=1;rounded=0;exitX=0.5;exitY=1;exitDx=0;exitDy=0;" edge="1" parent="1" source="Am5vA1U0dw_JDVjkBqAS-18">
          <mxGeometry width="50" height="50" relative="1" as="geometry">
            <mxPoint x="400" y="290" as="sourcePoint" />
            <mxPoint x="90" y="420" as="targetPoint" />
            <Array as="points">
              <mxPoint x="535" y="440" />
              <mxPoint x="90" y="440" />
            </Array>
          </mxGeometry>
        </mxCell>
        <mxCell id="Am5vA1U0dw_JDVjkBqAS-26" value="" style="endArrow=none;dashed=1;html=1;rounded=0;exitX=0.5;exitY=0;exitDx=0;exitDy=0;" edge="1" parent="1" source="Am5vA1U0dw_JDVjkBqAS-16">
          <mxGeometry width="50" height="50" relative="1" as="geometry">
            <mxPoint x="400" y="270" as="sourcePoint" />
            <mxPoint x="430" y="250" as="targetPoint" />
            <Array as="points">
              <mxPoint x="535" y="220" />
              <mxPoint x="430" y="220" />
            </Array>
          </mxGeometry>
        </mxCell>
        <mxCell id="Am5vA1U0dw_JDVjkBqAS-28" value="" style="endArrow=classic;html=1;rounded=0;entryX=0.5;entryY=0;entryDx=0;entryDy=0;" edge="1" parent="1" target="Am5vA1U0dw_JDVjkBqAS-14">
          <mxGeometry width="50" height="50" relative="1" as="geometry">
            <mxPoint x="430" y="250" as="sourcePoint" />
            <mxPoint x="450" y="220" as="targetPoint" />
            <Array as="points" />
          </mxGeometry>
        </mxCell>
        <mxCell id="Am5vA1U0dw_JDVjkBqAS-30" value="" style="endArrow=none;dashed=1;html=1;rounded=0;exitX=0.5;exitY=0;exitDx=0;exitDy=0;" edge="1" parent="1">
          <mxGeometry width="50" height="50" relative="1" as="geometry">
            <mxPoint x="425" y="260" as="sourcePoint" />
            <mxPoint x="200" y="250" as="targetPoint" />
            <Array as="points">
              <mxPoint x="425" y="220" />
              <mxPoint x="200" y="220" />
            </Array>
          </mxGeometry>
        </mxCell>
        <mxCell id="Am5vA1U0dw_JDVjkBqAS-31" value="" style="endArrow=classic;html=1;rounded=0;entryX=0.385;entryY=0.025;entryDx=0;entryDy=0;entryPerimeter=0;" edge="1" parent="1" target="Am5vA1U0dw_JDVjkBqAS-3">
          <mxGeometry width="50" height="50" relative="1" as="geometry">
            <mxPoint x="200" y="240" as="sourcePoint" />
            <mxPoint x="445" y="270" as="targetPoint" />
            <Array as="points">
              <mxPoint x="200" y="260" />
            </Array>
          </mxGeometry>
        </mxCell>
      </root>
    </mxGraphModel>
  </diagram>
</mxfile>
